<?xml version="1.0" encoding="UTF-8"?>
<svg version="1.1" xmlns="http://www.w3.org/2000/svg" width="512" height="512">
<path d="M0 0 C1.00515608 -0.00445784 2.01031217 -0.00891569 3.04592752 -0.01350862 C4.14308887 -0.01332426 5.24025022 -0.01313989 6.37065887 -0.01294994 C8.12740315 -0.01846498 8.12740315 -0.01846498 9.9196372 -0.02409142 C13.16690209 -0.03319962 16.41413726 -0.03782387 19.66141272 -0.04048073 C23.16536331 -0.04439185 26.66929937 -0.05396967 30.17324066 -0.0626936 C38.63402587 -0.08243613 47.09481223 -0.09252181 55.55561471 -0.10142139 C59.54370212 -0.10580827 63.53178821 -0.11117407 67.51987457 -0.11641026 C80.78390731 -0.13342099 94.04793923 -0.14791375 107.3119812 -0.155159 C110.75239818 -0.15706877 114.19281516 -0.15898912 117.63323212 -0.16094494 C118.91582138 -0.16167055 118.91582138 -0.16167055 120.22432154 -0.16241082 C134.06656243 -0.17070588 147.90871676 -0.19603463 161.75091988 -0.22852562 C175.97460876 -0.26163878 190.19825372 -0.27961164 204.42198133 -0.28280324 C212.4031025 -0.28496449 220.38409747 -0.29365653 228.36518097 -0.31926441 C235.16423568 -0.34102974 241.96313353 -0.34899332 248.76221913 -0.33929763 C252.227193 -0.33476959 255.69184362 -0.33655079 259.15677261 -0.35605907 C262.92478951 -0.37381539 266.691996 -0.36665215 270.46001434 -0.35352612 C271.53932992 -0.36449536 272.61864549 -0.37546461 273.73066759 -0.38676625 C289.82649929 -0.25215205 303.78779999 6.10164692 315.15764618 17.24750233 C325.33910333 27.87475774 330.95027875 40.65384713 331.12859344 55.40301991 C331.13849304 56.11576069 331.14839264 56.82850147 331.15859222 57.56284046 C331.19003892 59.90561127 331.21489764 62.24840232 331.23967743 64.59125233 C331.26026152 66.22078938 331.28125836 67.85032126 331.30265045 69.47984791 C331.35772094 73.75904616 331.40719618 78.03829139 331.45549774 82.31757069 C331.50582277 86.68813708 331.56145129 91.05863563 331.61663055 95.42914295 C331.72402825 103.99744489 331.82551369 112.56580375 331.92327118 121.13422108 C332.89129921 121.63825459 332.89129921 121.63825459 333.87888336 122.15247059 C336.85621222 123.7031166 339.83310302 125.25460181 342.80998993 126.80609608 C343.8247641 127.33445057 344.83953827 127.86280506 345.88506317 128.4071703 C386.96992704 149.82558581 386.96992704 149.82558581 393.92327118 171.13422108 C394.80055811 174.13838758 395.05081037 176.81032008 395.05749226 179.93731499 C395.0619501 180.90687946 395.06640794 181.87644394 395.07100087 182.87538916 C395.07072433 184.46918257 395.07072433 184.46918257 395.0704422 186.09517384 C395.07411889 187.22605787 395.07779558 188.3569419 395.08158368 189.52209514 C395.0926299 193.32583243 395.09646598 197.12954241 395.10027313 200.93329334 C395.10600506 203.65491946 395.11317105 206.37654149 395.12018585 209.09816456 C395.1399384 217.27607636 395.15001539 225.45398937 395.15891364 233.63191906 C395.16329893 237.48528159 395.16866515 241.33864275 395.17390251 245.1920042 C395.19091435 258.00563649 395.20540748 270.81926793 395.21265125 283.63290977 C395.21456108 286.9573215 395.21648142 290.28173321 395.21843719 293.60614491 C395.21892094 294.43238839 395.21940468 295.25863188 395.21990307 296.10991304 C395.2281995 309.48798016 395.25353005 322.86595774 395.28601787 336.24398578 C395.31911745 349.98624813 395.33710267 363.72846503 395.34029549 377.47076744 C395.34245802 385.18356309 395.35116872 392.89622821 395.37675667 400.60898495 C395.39850341 407.17902029 395.40649467 413.74889342 395.39678989 420.31896067 C395.39225637 423.66831891 395.39627349 427.01707236 395.41355133 430.36642933 C395.43127261 434.00602745 395.42416164 437.64478365 395.41101837 441.28438282 C395.42747224 442.85475366 395.42747224 442.85475366 395.44425851 444.45684916 C395.3359211 456.92847929 390.22161194 468.61957995 381.79827118 477.82172108 C368.81184263 489.92141111 354.17826452 491.58652311 337.28755951 491.52190113 C335.50541374 491.52607881 333.72327064 491.53155871 331.94113243 491.53822094 C327.06554993 491.55263725 322.19013702 491.54844276 317.31454539 491.54105413 C312.04789452 491.53631531 306.78127996 491.54883862 301.51464081 491.55907154 C291.20525235 491.57625085 280.89592487 491.57710134 270.58652581 491.57185864 C262.20540937 491.5678141 253.82431093 491.56926387 245.44319534 491.5746069 C243.65262694 491.57572953 243.65262694 491.57572953 241.82588544 491.57687484 C239.40071281 491.57840635 236.97554019 491.5799447 234.55036758 491.58148981 C211.81737761 491.5952117 189.08442208 491.58977933 166.3514329 491.5783046 C145.56453125 491.56837248 124.7777186 491.5813131 103.99083067 491.60523879 C82.63430604 491.62963448 61.27782285 491.6392365 39.92128456 491.63258606 C27.93622427 491.62909491 15.95123244 491.63131914 3.96618271 491.64883709 C-6.2363198 491.6635649 -16.43870565 491.66418684 -26.64120589 491.64676618 C-31.8438505 491.63825869 -37.04628675 491.63610066 -42.24892044 491.65141773 C-47.0172211 491.66528199 -51.78513524 491.66047922 -56.55341364 491.6411785 C-58.27268454 491.63742353 -59.99198652 491.64032583 -61.71122967 491.65079015 C-77.70849744 491.74118784 -91.24892923 488.95284693 -103.54938507 477.91547108 C-111.22862082 470.01829374 -117.18254267 459.55246629 -117.21374321 448.32109642 C-117.21881775 447.34928195 -117.2238923 446.37746747 -117.22912061 445.37620407 C-117.22961837 444.31114842 -117.23011613 443.24609277 -117.23062897 442.1487627 C-117.23501122 441.01520625 -117.23939348 439.8816498 -117.24390852 438.71374315 C-117.25730363 434.90085718 -117.26347706 431.08799432 -117.26959991 427.27509022 C-117.27697448 424.54685658 -117.28576442 421.81862779 -117.29438019 419.09039783 C-117.31889015 410.89171547 -117.33353075 402.69302707 -117.34644026 394.49431935 C-117.35015368 392.17726241 -117.35412681 389.86020606 -117.35819292 387.54314971 C-117.38343464 373.14477431 -117.40548092 358.74639793 -117.41792107 344.34800529 C-117.42085062 341.01364164 -117.4238123 337.67927802 -117.42682648 334.34491444 C-117.42757253 333.51620496 -117.42831858 332.68749548 -117.42908724 331.83367359 C-117.44172975 318.42136959 -117.47493845 305.00919849 -117.51662831 291.59695656 C-117.55911096 277.81626505 -117.58262353 264.03564145 -117.58784163 250.25488466 C-117.59124894 242.52187013 -117.60292326 234.78906315 -117.63594437 227.05611324 C-117.66403345 220.46744868 -117.6749057 213.87903422 -117.66374891 207.29031444 C-117.6585842 203.93249226 -117.66406578 200.57561466 -117.68621445 197.21779919 C-117.80087458 178.82834367 -117.14069038 164.37289812 -104.07672882 150.13422108 C-96.50282335 143.70153494 -87.84545924 139.07085172 -79.07672882 134.50922108 C-77.26573493 133.55637469 -75.45602658 132.60111581 -73.6463089 131.64584827 C-72.00657489 130.78198049 -70.36402234 129.92346857 -68.72126007 129.06537342 C-63.80746155 126.48177552 -58.94599831 123.80045474 -54.07672882 121.13422108 C-54.07308319 120.24853947 -54.06943756 119.36285786 -54.06568146 118.45033741 C-54.02761339 110.05124974 -53.97054982 101.65254297 -53.89282608 93.25372505 C-53.85353127 88.93710218 -53.82125553 84.62067781 -53.80573273 80.30389881 C-53.79044627 76.12797259 -53.75579281 71.95259278 -53.7084198 67.77691174 C-53.69372831 66.19399456 -53.68569494 64.61099931 -53.68484497 63.02801418 C-53.66504812 44.62385657 -49.01351698 29.21217398 -35.96344757 15.89984608 C-26.23530506 6.57978533 -13.71866989 0.02833578 0 0 Z " fill="#579ED6" transform="translate(117.07672882080078,-0.13422107696533203)"/>
<path d="M0 0 C1.00515608 -0.00445784 2.01031217 -0.00891569 3.04592752 -0.01350862 C4.14308887 -0.01332426 5.24025022 -0.01313989 6.37065887 -0.01294994 C8.12740315 -0.01846498 8.12740315 -0.01846498 9.9196372 -0.02409142 C13.16690209 -0.03319962 16.41413726 -0.03782387 19.66141272 -0.04048073 C23.16536331 -0.04439185 26.66929937 -0.05396967 30.17324066 -0.0626936 C38.63402587 -0.08243613 47.09481223 -0.09252181 55.55561471 -0.10142139 C59.54370212 -0.10580827 63.53178821 -0.11117407 67.51987457 -0.11641026 C80.78390731 -0.13342099 94.04793923 -0.14791375 107.3119812 -0.155159 C110.75239818 -0.15706877 114.19281516 -0.15898912 117.63323212 -0.16094494 C118.91582138 -0.16167055 118.91582138 -0.16167055 120.22432154 -0.16241082 C134.06656243 -0.17070588 147.90871676 -0.19603463 161.75091988 -0.22852562 C175.97460876 -0.26163878 190.19825372 -0.27961164 204.42198133 -0.28280324 C212.4031025 -0.28496449 220.38409747 -0.29365653 228.36518097 -0.31926441 C235.16423568 -0.34102974 241.96313353 -0.34899332 248.76221913 -0.33929763 C252.227193 -0.33476959 255.69184362 -0.33655079 259.15677261 -0.35605907 C262.92478951 -0.37381539 266.691996 -0.36665215 270.46001434 -0.35352612 C271.53932992 -0.36449536 272.61864549 -0.37546461 273.73066759 -0.38676625 C289.82649929 -0.25215205 303.78779999 6.10164692 315.15764618 17.24750233 C325.68904147 28.24001804 331.10036061 41.27670171 331.0435257 56.48012257 C331.04480733 57.73609777 331.04480733 57.73609777 331.04611486 59.01744622 C331.04776104 61.8211228 331.04226239 64.62473946 331.03679657 67.42841053 C331.03651449 69.43897468 331.03667285 71.44953894 331.03723907 73.46010303 C331.03752622 78.91831957 331.03164278 84.37651418 331.02466512 89.83472562 C331.01841788 95.538901 331.01782669 101.24307686 331.01663971 106.94725513 C331.01353045 117.7489635 331.00532249 128.55066176 330.99529022 139.35236567 C330.98411654 151.649707 330.97861546 163.94704881 330.97359478 176.24439394 C330.96313956 201.5410086 330.94554792 226.83761427 330.92327118 252.13422108 C327.47318815 254.02488684 324.02159581 255.91278135 320.56975555 257.8002367 C319.60712799 258.32780567 318.64450043 258.85537464 317.65270233 259.39893055 C308.85078131 264.2087992 299.94405753 268.79541102 290.99758148 273.32913685 C278.25706683 279.78812694 265.56894771 286.3025007 253.07439423 293.2274828 C246.54679033 296.83382884 239.91579457 300.19324656 233.23088837 303.49725819 C226.95385734 306.60291291 220.74757433 309.82516783 214.55925751 313.10345936 C206.37567895 317.43559789 198.15225408 321.68982362 189.92668915 325.94159412 C183.89079257 329.06477491 177.87221093 332.21553735 171.88005829 335.42181873 C168.8798086 337.01938209 165.86527029 338.58761932 162.84221649 340.1415453 C161.1278828 341.02837491 159.42691643 341.94093555 157.72795868 342.85687733 C147.36670481 347.92457507 134.78717915 347.84804314 123.89202118 344.31634998 C117.01976682 341.5798816 110.52589609 338.01024025 103.98577118 334.57172108 C102.40086348 333.74644901 100.81557431 332.92190914 99.2299118 332.09808826 C94.78868074 329.78757657 90.35511679 327.46267094 85.92327118 325.13422108 C84.91893036 324.60780018 83.91458954 324.08137928 82.87981415 323.53900623 C79.12991375 321.57297562 75.38427257 319.59914061 71.64202118 317.61859608 C65.58779282 314.42123997 59.50363751 311.28148829 53.42327118 308.13422108 C45.00070011 303.77394589 36.59090445 299.39177386 28.20452118 294.96234608 C21.29529535 291.3184393 14.36002539 287.72538957 7.42327118 284.13422108 C-1.03404065 279.75569171 -9.48071389 275.3590247 -17.90094757 270.9096117 C-22.48902193 268.48790637 -27.0876919 266.08765595 -31.69391632 263.70062733 C-33.40393829 262.81419544 -33.40393829 262.81419544 -35.14850616 261.90985584 C-37.39544127 260.74606443 -39.64313626 259.5837387 -41.89167023 258.42303944 C-42.91180206 257.89460438 -43.9319339 257.36616932 -44.98297882 256.82172108 C-45.89370148 256.35121326 -46.80442413 255.88070545 -47.74274445 255.39593983 C-50.07672882 254.13422108 -50.07672882 254.13422108 -53.07672882 252.13422108 C-53.37991829 249.42713947 -53.48531874 246.94703132 -53.46440887 244.23656178 C-53.46979441 243.4109806 -53.47517995 242.58539942 -53.48072869 241.73480064 C-53.49510302 238.95202023 -53.4878811 236.16970921 -53.48078156 233.38690662 C-53.48648063 231.39787378 -53.49344308 229.4088442 -53.50157928 227.41981983 C-53.51958882 222.00183603 -53.51832629 216.58401351 -53.5126369 211.16600871 C-53.50955255 206.64133908 -53.51562994 202.11670077 -53.52167565 197.59203559 C-53.53574832 186.90774755 -53.53414024 176.22353939 -53.52277374 165.53925037 C-53.51132312 154.53308564 -53.52531044 143.52716545 -53.55217022 132.52103299 C-53.57437499 123.06692247 -53.58095285 113.61288842 -53.57509381 104.15875369 C-53.57173041 98.51495955 -53.57409674 92.87132169 -53.59134483 87.22754955 C-53.60688507 81.90955163 -53.60278007 76.59191274 -53.58403969 71.27392864 C-53.5803716 69.32980636 -53.58340986 67.3856571 -53.59392548 65.44155979 C-53.64814811 54.58075033 -53.18420774 45.333343 -49.07672882 35.13422108 C-48.54076411 33.78357327 -48.54076411 33.78357327 -47.99397182 32.40563965 C-42.92469769 20.32974525 -31.52371759 9.91807687 -19.73688507 4.63812733 C-13.12947755 2.01448857 -7.14827868 0.0147647 0 0 Z " fill="#CCCFD1" transform="translate(117.07672882080078,-0.13422107696533203)"/>
<path d="M0 0 C54.81331988 27.40665994 54.81331988 27.40665994 62.30859375 47.80859375 C63.49700425 51.57525077 64.12574546 54.83666687 64.13422108 58.80309391 C64.13867892 59.77265839 64.14313676 60.74222286 64.14772969 61.74116808 C64.14745315 63.3349615 64.14745315 63.3349615 64.14717102 64.96095276 C64.15084771 66.09183679 64.1545244 67.22272082 64.1583125 68.38787407 C64.16935872 72.19161135 64.1731948 75.99532133 64.17700195 79.79907227 C64.18273388 82.52069838 64.18989987 85.24232041 64.19691467 87.96394348 C64.21666722 96.14185528 64.22674422 104.31976829 64.23564246 112.49769798 C64.24002775 116.35106051 64.24539398 120.20442168 64.25063133 124.05778313 C64.26764317 136.87141541 64.2821363 149.68504685 64.28938007 162.4986887 C64.2912899 165.82310042 64.29321024 169.14751213 64.29516602 172.47192383 C64.29564976 173.29816731 64.2961335 174.1244108 64.2966319 174.97569197 C64.30492832 188.35375908 64.33025887 201.73173666 64.36274669 215.1097647 C64.39584627 228.85202705 64.41383149 242.59424395 64.41702431 256.33654636 C64.41918684 264.04934201 64.42789754 271.76200714 64.45348549 279.47476387 C64.47523223 286.04479922 64.48322349 292.61467234 64.47351871 299.1847396 C64.46898519 302.53409783 64.47300231 305.88285128 64.49028015 309.23220825 C64.50800144 312.87180638 64.50089046 316.51056257 64.48774719 320.15016174 C64.50420106 321.72053258 64.50420106 321.72053258 64.52098733 323.32262808 C64.41264992 335.79425821 59.29834076 347.48535888 50.875 356.6875 C36.76586116 369.8332395 21.07847434 370.44192479 2.9230957 370.34057617 C0.79342155 370.33972895 -1.33625348 370.34020691 -3.46592712 370.34190369 C-9.22136815 370.34276133 -14.97662005 370.32517291 -20.73201728 370.30418181 C-26.75645971 370.2853765 -32.78090689 370.28366154 -38.80537415 370.28010559 C-50.20190772 370.27079644 -61.59835454 370.24619794 -72.99484998 370.21605712 C-88.40316045 370.17619418 -103.8114948 370.1600491 -119.21984386 370.14255047 C-143.47996084 370.11437607 -167.73989478 370.05459889 -192 370 C-192 322.15 -192 274.3 -192 225 C-185.565 224.01 -185.565 224.01 -179 223 C-175.28046064 221.53390419 -171.90369208 220.06230072 -168.375 218.25 C-167.40916992 217.77119385 -166.44333984 217.2923877 -165.44824219 216.79907227 C-162.28697649 215.22171247 -159.14234544 213.61469813 -156 212 C-154.88592773 211.43071777 -153.77185547 210.86143555 -152.62402344 210.27490234 C-144.72422758 206.23093256 -136.85539081 202.12946917 -129 198 C-128.13955078 197.5477002 -127.27910156 197.09540039 -126.39257812 196.62939453 C-123.35176407 195.02965649 -120.3115264 193.42885686 -117.27368164 191.82348633 C-112.72914389 189.42475104 -108.17218087 187.0515881 -103.60546875 184.6953125 C-92.90512926 179.17381217 -82.23146822 173.6281545 -71.6875 167.8125 C-63.56937383 163.3377097 -55.35225673 159.11605091 -47.04443359 155.00537109 C-37.9407816 150.49666338 -28.97604056 145.75910875 -20 141 C-13.73 137.7 -7.46 134.4 -1 131 C-0.67 87.77 -0.34 44.54 0 0 Z " fill="#64B5F5" transform="translate(448,121)"/>
<path d="M0 0 C35.58757921 -0.16121214 35.58757921 -0.16121214 50.55273438 -0.1953125 C60.86718747 -0.21900493 71.18150942 -0.24678831 81.49584961 -0.30175781 C89.00926882 -0.34178073 96.52258116 -0.3674694 104.03610402 -0.37635398 C108.00996949 -0.38154274 111.98352939 -0.3936313 115.95729637 -0.42292023 C119.70757398 -0.45033454 123.45742398 -0.45839335 127.20779228 -0.45243073 C129.21995412 -0.45403349 131.23207079 -0.47541873 133.24411011 -0.49768066 C150.06700468 -0.42244466 164.27676497 5.3912412 176.234375 17.11328125 C186.76577029 28.10579696 192.17708943 41.14248063 192.12025452 56.34590149 C192.12153615 57.6018767 192.12153615 57.6018767 192.12284368 58.88322514 C192.12448986 61.68690173 192.11899121 64.49051839 192.11352539 67.29418945 C192.11324331 69.30475361 192.11340167 71.31531786 192.1139679 73.32588196 C192.11425504 78.7840985 192.10837161 84.2422931 192.10139394 89.70050454 C192.0951467 95.40467992 192.09455551 101.10885579 192.09336853 106.81303406 C192.09025927 117.61474242 192.08205131 128.41644068 192.07201904 139.2181446 C192.06084536 151.51548592 192.05534429 163.81282773 192.05032361 176.11017287 C192.03986838 201.40678752 192.02227674 226.70339319 192 252 C188.54991697 253.89066576 185.09832463 255.77856027 181.64648438 257.66601562 C180.68385681 258.19358459 179.72122925 258.72115356 178.72943115 259.26470947 C169.92751013 264.07457813 161.02078635 268.66118994 152.0743103 273.19491577 C139.33379565 279.65390586 126.64567653 286.16827963 114.15112305 293.09326172 C107.62351915 296.69960776 100.99252339 300.05902548 94.30761719 303.36303711 C88.03058616 306.46869183 81.82430315 309.69094675 75.63598633 312.96923828 C67.45240777 317.30137681 59.2289829 321.55560254 51.00341797 325.80737305 C44.96701096 328.93081795 38.94851788 332.08298474 32.95483398 335.28759766 C12.85318125 346 12.85318125 346 0 346 C0 323.56 0 301.12 0 278 C12.87 276.02 12.87 276.02 26 274 C53.6573806 265.72160036 77.99046701 249.53112634 92.24853516 223.74169922 C106.03884842 197.3722739 110.07837314 168.35568047 101.78125 139.5078125 C97.24814704 125.18496316 89.85577011 112.31057194 80 101 C79.47277344 100.3296875 78.94554687 99.659375 78.40234375 98.96875 C63.1192646 80.04326623 36.73731727 68.07662138 13 65 C8.71 64.67 4.42 64.34 0 64 C0 42.88 0 21.76 0 0 Z " fill="#EBEEF1" transform="translate(256,0)"/>
<path d="M0 0 C2.08503022 -0.01111054 4.17007754 -0.01904601 6.25512695 -0.02563477 C7.99678886 -0.03277245 7.99678886 -0.03277245 9.77363586 -0.04005432 C31.36477905 0.2279931 52.6099062 11.90145186 69 25 C69.78246094 25.61488281 70.56492187 26.22976562 71.37109375 26.86328125 C92.46781685 44.42508105 103.98110257 70.87551001 106.7890625 97.68408203 C109.34480381 125.74399186 100.4095381 153.2029599 82.62109375 174.94140625 C65.72903033 194.90819065 41.82829251 209.9459094 15.36889648 212.82788086 C-17.10027269 215.18702383 -44.41143718 209.27556231 -69.72265625 188.015625 C-71.55248581 186.3960846 -73.30396725 184.75720115 -75 183 C-73.45543632 178.51838681 -69.83428409 176.33529812 -66.17944336 173.63452148 C-20.22861924 139.40724279 -20.22861924 139.40724279 3.02270794 89.47633839 C4.55794887 75.9991839 4.55335325 62.53495198 4 49 C3.95045795 47.78188 3.90091591 46.56375999 3.84987259 45.30872726 C3.17525918 30.13724961 1.8806502 15.06782285 0 0 Z " fill="#1D83D3" transform="translate(256,64)"/>
<path d="M0 0 C1.07043045 0.00599213 2.1408609 0.01198425 3.24372864 0.01815796 C4.05428207 0.02586212 4.86483551 0.03356628 5.69995117 0.04150391 C8.00138806 16.26400725 9.52303037 32.49114531 10.38745117 48.85400391 C10.45165253 50.06066837 10.51585388 51.26733284 10.58200073 52.5105629 C12.00649089 82.83355836 9.77168281 107.47768629 -10.99926758 130.84619141 C-17.56615892 138.04558694 -24.54986203 144.72430178 -31.80004883 151.22900391 C-32.69688511 152.03424625 -33.59372139 152.8394886 -34.51773453 153.66913223 C-45.71567944 163.64296022 -57.28845233 173.06737367 -69.30004883 182.04150391 C-70.42329174 181.09760369 -71.54387204 180.15053441 -72.66333008 179.20214844 C-73.28763916 178.67509308 -73.91194824 178.14803772 -74.55517578 177.60501099 C-89.9502232 163.81015887 -99.61979534 138.09528381 -101.17504883 117.77978516 C-102.63972654 85.69418902 -93.99845982 58.51546574 -73.11254883 33.91650391 C-57.77911907 17.51825264 -37.44426393 6.47117546 -15.61254883 1.66650391 C-14.4916687 1.41465332 -14.4916687 1.41465332 -13.34814453 1.15771484 C-8.85458205 0.25363253 -4.58680261 -0.03339857 0 0 Z " fill="#FEC007" transform="translate(250.300048828125,63.95849609375)"/>
<path d="M0 0 C26.44978352 0 48.37288514 8.51533187 69 25 C69.78246094 25.61488281 70.56492187 26.22976562 71.37109375 26.86328125 C92.43302285 44.39611706 103.97189062 70.83213923 106.80224609 97.60058594 C107.28054863 103.40399001 107.23791539 109.18429047 107 115 C106.67 115 106.34 115 106 115 C106 112.36 106 109.72 106 107 C71.02 107 36.04 107 0 107 C0 71.69 0 36.38 0 0 Z " fill="#2196F2" transform="translate(256,64)"/>
<path d="M0 0 C54.81331988 27.40665994 54.81331988 27.40665994 62.30859375 47.80859375 C63.46234211 51.46538939 64.12458852 54.64319674 64.11352539 58.49316406 C64.11341209 59.81408051 64.11341209 59.81408051 64.11329651 61.16168213 C64.10813522 62.10348328 64.10297394 63.04528442 64.09765625 64.015625 C64.0962413 64.98659119 64.09482635 65.95755737 64.09336853 66.95794678 C64.08777663 70.05532935 64.07522559 73.15263932 64.0625 76.25 C64.05748395 78.35156146 64.05292123 80.45312404 64.04882812 82.5546875 C64.03780985 87.70315292 64.02055074 92.85156416 64 98 C62.91807373 98.55349121 61.83614746 99.10698242 60.72143555 99.67724609 C56.60742604 101.78226226 52.49416679 103.8887411 48.38110352 105.99560547 C46.61958091 106.89768131 44.85786984 107.79938924 43.09594727 108.70068359 C32.77532038 113.98045557 22.4769571 119.29773677 12.23088074 124.72103882 C11.1339666 125.30119247 11.1339666 125.30119247 10.01489258 125.89306641 C9.06553581 126.39648056 9.06553581 126.39648056 8.09700012 126.9100647 C5.41399112 128.30458356 2.70454731 129.64772634 0 131 C0 87.77 0 44.54 0 0 Z " fill="#2196F3" transform="translate(448,121)"/>
<path d="M0 0 C0 42.9 0 85.8 0 130 C-4.63180268 128.45606577 -8.41778897 126.88287031 -12.69921875 124.65625 C-13.32789856 124.3307869 -13.95657837 124.00532379 -14.60430908 123.66999817 C-16.63431723 122.61765181 -18.6609858 121.55905682 -20.6875 120.5 C-22.08716899 119.77208727 -23.48699081 119.04446831 -24.88696289 118.31713867 C-28.31112978 116.5367569 -31.73245494 114.75098824 -35.15307617 112.96380615 C-37.76113654 111.60280545 -40.37286569 110.2488996 -42.984375 108.89453125 C-44.6356814 108.03436221 -46.2867479 107.17373234 -47.9375 106.3125 C-48.65574951 105.93996094 -49.37399902 105.56742187 -50.11401367 105.18359375 C-51.39798965 104.50938718 -52.67525713 103.82208931 -53.942276 103.11653137 C-55.30190647 102.37878905 -56.68633187 101.68485139 -58.09210205 101.03935242 C-63.55526264 98.24594656 -63.55526264 98.24594656 -64.73439026 94.94258118 C-65.01161675 92.37686178 -65.03076418 89.92348901 -64.95703125 87.34375 C-64.95757004 86.40503052 -64.95810883 85.46631104 -64.95866394 84.49914551 C-64.95097133 82.51195941 -64.92367645 80.5247659 -64.87817383 78.53808594 C-64.8132908 75.53658268 -64.81648632 72.54112188 -64.83007812 69.5390625 C-64.75430561 53.71751532 -62.07480332 41.07065306 -51 29 C-43.42609452 22.56731386 -34.76873042 17.93663065 -26 13.375 C-24.79384711 12.74038802 -23.58811633 12.10497311 -22.3828125 11.46875 C-20.04096628 10.23292603 -17.69702565 9.00144657 -15.3515625 7.77246094 C-11.21041126 5.58242903 -7.10715978 3.32738818 -3.01171875 1.05322266 C-1 0 -1 0 0 0 Z " fill="#1D83D4" transform="translate(64,121)"/>
<path d="M0 0 C34.65 0 69.3 0 105 0 C98.25 7.875 98.25 7.875 95.69692993 10.42332458 C95.11651947 11.00510971 94.53610901 11.58689484 93.93811035 12.18630981 C93.32383179 12.7969931 92.70955322 13.40767639 92.07666016 14.03686523 C91.08048172 15.03326271 91.08048172 15.03326271 90.06417847 16.04978943 C87.89150441 18.22177269 85.71532128 20.39020279 83.5390625 22.55859375 C82.02284228 24.07294682 80.50684424 25.58752237 78.99105835 27.10231018 C75.01818297 31.07138372 71.04231269 35.03744381 67.0657959 39.00286865 C63.00167446 43.05672562 58.94041378 47.11344637 54.87890625 51.16992188 C46.92205673 59.11607526 38.96203806 67.05904577 31 75 C29.87675709 74.05609978 28.75617678 73.10903051 27.63671875 72.16064453 C27.01240967 71.63358917 26.38810059 71.10653381 25.74487305 70.56350708 C14.25819693 60.2707815 7.75040612 44.34127346 3 30 C2.65710938 28.99195313 2.31421875 27.98390625 1.9609375 26.9453125 C-0.82600941 17.54262247 0 10.55856638 0 0 Z " fill="#DEA806" transform="translate(150,171)"/>
</svg>
